<?xml version="1.0" encoding="UTF-8" standalone="no"?>
<svg
   viewBox="0 0 39.593284 30.966764"
   version="1.1"
   width="39.593285pt"
   height="30.966764pt"
   id="svg29"
   xmlns="http://www.w3.org/2000/svg"
   xmlns:svg="http://www.w3.org/2000/svg">
  <defs
     id="defs2" />
  <g
     id="Background"
     transform="translate(-21.52108,-14.869348)">
    <path
       style="fill:#000000;stroke-width:23.811;stroke-linecap:round"
       d="m 36.945888,14.869351 a 4.5387826,4.5387826 0 0 0 -4.539551,4.538086 4.5387826,4.5387826 0 0 0 0.02197,0.304687 4.5387826,4.5387826 0 0 0 -3.125977,-1.250976 4.5387826,4.5387826 0 0 0 -4.538086,4.539551 4.5387826,4.5387826 0 0 0 0.924317,2.726074 4.5387826,4.5387826 0 0 0 -4.167481,4.513183 4.5387826,4.5387826 0 0 0 4.539551,4.538086 4.5387826,4.5387826 0 0 0 0.0249,-0.0015 4.5387826,4.5387826 0 0 0 -1.321289,3.186036 4.5387826,4.5387826 0 0 0 4.538086,4.53955 4.5387826,4.5387826 0 0 0 3.106934,-1.243652 4.5387826,4.5387826 0 0 0 -0.0029,0.03955 4.5387826,4.5387826 0 0 0 4.539551,4.538086 4.5387826,4.5387826 0 0 0 4.381347,-3.383789 4.5387826,4.5387826 0 0 0 4.382813,3.383789 4.5387826,4.5387826 0 0 0 4.538086,-4.538086 4.5387826,4.5387826 0 0 0 0,-0.01758 4.5387826,4.5387826 0 0 0 3.084961,1.221679 4.5387826,4.5387826 0 0 0 4.539551,-4.53955 4.5387826,4.5387826 0 0 0 -1.306641,-3.186036 4.5387826,4.5387826 0 0 0 0.01025,0.0015 4.5387826,4.5387826 0 0 0 4.538086,-4.538086 4.5387826,4.5387826 0 0 0 -4.160156,-4.521972 4.5387826,4.5387826 0 0 0 0.918457,-2.717285 4.5387826,4.5387826 0 0 0 -4.539551,-4.539551 4.5387826,4.5387826 0 0 0 -3.105469,1.242187 4.5387826,4.5387826 0 0 0 0.02051,-0.295898 4.5387826,4.5387826 0 0 0 -4.538086,-4.538086 4.5387826,4.5387826 0 0 0 -4.379883,3.37207 4.5387826,4.5387826 0 0 0 -4.384277,-3.37207 z"
       id="path1" />
  </g>
</svg>
