<?xml version="1.0" encoding="UTF-8" standalone="no"?>
<svg
   viewBox="0 0 65.652151 46.081093"
   version="1.1"
   width="65.652153pt"
   height="46.081093pt"
   id="svg29"
   sodipodi:docname="box_initiative.svg"
   inkscape:version="1.3.2 (091e20e, 2023-11-25, custom)"
   xmlns:inkscape="http://www.inkscape.org/namespaces/inkscape"
   xmlns:sodipodi="http://sodipodi.sourceforge.net/DTD/sodipodi-0.dtd"
   xmlns="http://www.w3.org/2000/svg"
   xmlns:svg="http://www.w3.org/2000/svg">
  <sodipodi:namedview
     id="namedview31"
     pagecolor="#505050"
     bordercolor="#000000"
     borderopacity="1"
     inkscape:pageshadow="0"
     inkscape:pageopacity="0"
     inkscape:pagecheckerboard="1"
     inkscape:document-units="pt"
     showgrid="false"
     lock-margins="false"
     fit-margin-top="0"
     fit-margin-left="0"
     fit-margin-right="0"
     fit-margin-bottom="0"
     inkscape:zoom="12.327055"
     inkscape:cx="49.728017"
     inkscape:cy="57.718571"
     inkscape:window-width="3840"
     inkscape:window-height="2058"
     inkscape:window-x="-11"
     inkscape:window-y="-11"
     inkscape:window-maximized="1"
     inkscape:current-layer="Background"
     inkscape:showpageshadow="0"
     inkscape:deskcolor="#d1d1d1" />
  <defs
     id="defs2" />
  <g
     inkscape:groupmode="layer"
     id="Background"
     inkscape:label="Background"
     transform="translate(-33.205008,34.668266)">
    <path
       id="path1"
       style="stroke-width:23.811;stroke-linecap:round"
       inkscape:transform-center-x="1.6333255"
       inkscape:transform-center-y="-4.2697377"
       transform="matrix(1.0479226,0,0,0.73743642,56.653756,13.752857)"
       d="m 40.273396,-37.583741 c 0,0 -5.041124,3.111125 -5.355591,6.394216 -0.288186,3.008707 3.627315,7.510722 3.627315,7.510722 0,0 -6.032239,0.385988 -7.599567,3.437286 -1.153502,2.245654 0.0093,8.340759 0.0093,8.340759 0,0 -5.869493,-2.015963 -8.338356,-0.20044 -1.896325,1.394497 -3.610525,7.5188065 -3.610525,7.5188065 0,0 -4.804083,-4.1099591 -7.425631,-3.7984677 -2.4830683,0.2950372 -6.5152591,5.2076626 -6.5152591,5.2076626 0,0 -2.8482705,-5.7008631 -5.04216899,-6.6441616 -2.62731231,-1.1296508 -8.12956561,1.8650769 -8.12956561,1.8650769 0,0 -0.1651955,-6.2951807 -1.6600436,-8.1738977 -2.0566667,-2.584807 -8.1337117,-1.84691 -8.1337117,-1.84691 0,0 2.755732,-5.400865 2.050873,-8.084694 -0.871835,-3.31961 -6.526877,-5.193094 -6.526877,-5.193094 0,0 5.041124,-3.111125 5.355591,-6.394216 0.288186,-3.008707 -3.627314,-7.510722 -3.627314,-7.510722 0,0 6.032238,-0.385988 7.599566,-3.437286 1.153502,-2.245654 -0.0093,-8.340759 -0.0093,-8.340759 0,0 5.869493,2.015964 8.3383561,0.200441 1.8963248,-1.394497 3.6105254,-7.518807 3.6105254,-7.518807 0,0 4.8040825,4.109959 7.4256309,3.798468 2.4830682,-0.295037 6.5152586,-5.207663 6.5152586,-5.207663 0,0 2.84827,5.700863 5.042169,6.644162 2.627312,1.129651 8.129566,-1.865077 8.129566,-1.865077 0,0 0.165196,6.295181 1.660044,8.173898 2.056667,2.584807 8.133712,1.84691 8.133712,1.84691 0,0 -2.755733,5.400864 -2.050874,8.084693 0.871835,3.31961 6.526877,5.193094 6.526877,5.193094 z"
       sodipodi:nodetypes="cscscscscscscscscscscscscscsc" />
  </g>
</svg>
