<?xml version="1.0" encoding="UTF-8" standalone="no"?>
<svg
   viewBox="0 0 37.305499 36.730301"
   version="1.1"
   width="37.3055pt"
   height="36.730301pt"
   id="svg29"
   sodipodi:docname="box_initiative.svg"
   inkscape:version="1.1.1 (3bf5ae0d25, 2021-09-20)"
   xmlns:inkscape="http://www.inkscape.org/namespaces/inkscape"
   xmlns:sodipodi="http://sodipodi.sourceforge.net/DTD/sodipodi-0.dtd"
   xmlns="http://www.w3.org/2000/svg"
   xmlns:svg="http://www.w3.org/2000/svg">
  <sodipodi:namedview
     id="namedview31"
     pagecolor="#505050"
     bordercolor="#ffffff"
     borderopacity="1"
     inkscape:pageshadow="0"
     inkscape:pageopacity="0"
     inkscape:pagecheckerboard="1"
     inkscape:document-units="pt"
     showgrid="false"
     lock-margins="false"
     fit-margin-top="0"
     fit-margin-left="0"
     fit-margin-right="0"
     fit-margin-bottom="0"
     inkscape:zoom="8.7165442"
     inkscape:cx="58.566789"
     inkscape:cy="10.726728"
     inkscape:window-width="3840"
     inkscape:window-height="2058"
     inkscape:window-x="-11"
     inkscape:window-y="-11"
     inkscape:window-maximized="1"
     inkscape:current-layer="Background" />
  <defs
     id="defs2" />
  <g
     inkscape:groupmode="layer"
     id="Background"
     inkscape:label="Background"
     transform="translate(-22.664973,-11.98758)">
    <path
       style="fill:#ffffff;fill-rule:evenodd;stroke:none;stroke-width:0.694488;stroke-linecap:butt;stroke-linejoin:miter;stroke-dasharray:none"
       d="m 41.317773,48.71788 c 0,0 1.4453,-4.238 5.2758,-5.8247 3.8304,-1.5866 7.9136,0.4457 7.9136,0.4457 0,0 -2.0392,-3.9613 -0.4525,-7.7917 1.5866,-3.8304 5.9158,-5.1945 5.9158,-5.1945 0,0 -4.3292,-1.364 -5.9158,-5.1944 -1.5867,-3.83042 0.4525,-7.79167 0.4525,-7.79167 0,0 -4.083199,2.03222 -7.9136,0.44561 -3.8305,-1.58661 -5.2758,-5.82464 -5.2758,-5.82464 0,0 -1.4454,4.23803 -5.2758,5.82464 -3.83046,1.58661 -7.91373,-0.44561 -7.91373,-0.44561 0,0 2.0392,3.96125 0.45259,7.79167 -1.58661,3.8304 -5.91586,5.1944 -5.91586,5.1944 0,0 4.32925,1.3641 5.91586,5.1945 1.58661,3.8304 -0.45259,7.7917 -0.45259,7.7917 0,0 4.08327,-2.0323 7.91373,-0.4457 3.8304,1.5867 5.2758,5.8247 5.2758,5.8247 z"
       id="path6" />
  </g>
</svg>
