<?xml version="1.0" encoding="UTF-8" standalone="no"?>
<svg
   viewBox="0 0 512 512"
   style="height: 512px; width: 512px;"
   height="512px"
   width="512px"
   version="1.1"
   id="svg6"
   sodipodi:docname="hit-crit.svg"
   inkscape:version="1.1.1 (3bf5ae0d25, 2021-09-20)"
   xmlns:inkscape="http://www.inkscape.org/namespaces/inkscape"
   xmlns:sodipodi="http://sodipodi.sourceforge.net/DTD/sodipodi-0.dtd"
   xmlns="http://www.w3.org/2000/svg"
   xmlns:svg="http://www.w3.org/2000/svg">
  <defs
     id="defs10" />
  <sodipodi:namedview
     id="namedview8"
     pagecolor="#505050"
     bordercolor="#ffffff"
     borderopacity="1"
     inkscape:pageshadow="0"
     inkscape:pageopacity="0"
     inkscape:pagecheckerboard="1"
     showgrid="false"
     inkscape:zoom="2.8300781"
     inkscape:cx="59.89234"
     inkscape:cy="256"
     inkscape:window-width="3840"
     inkscape:window-height="2058"
     inkscape:window-x="-11"
     inkscape:window-y="-11"
     inkscape:window-maximized="1"
     inkscape:current-layer="svg6" />
  <path
     id="path2"
     style="stroke-width:2.52227;fill:#00a846;fill-opacity:1"
     d="M 255.44531 0.4453125 L 255.44922 0.45507812 L 215.66602 55.576172 L 157.6543 20.113281 L 142.01172 86.257812 L 74.84375 75.681641 L 85.708984 142.7832 L 19.601562 158.7168 L 55.328125 216.55273 L 0.359375 256.55469 L 55.503906 296.31641 L 20.027344 354.30664 L 86.197266 369.94531 L 75.617188 437.09766 L 142.74219 426.23242 L 158.67383 492.31641 L 216.52734 456.59961 L 256.54297 511.55469 L 296.32422 456.42969 L 354.33594 491.89258 L 365.13867 446.21289 L 369.98047 425.74219 L 437.15625 436.32227 L 426.28516 369.21484 L 492.39453 353.28906 L 456.66406 295.45898 L 511.64062 255.45508 L 456.49609 215.6875 L 491.9707 157.69531 L 425.80078 142.05664 L 436.36914 74.904297 L 369.25195 85.767578 L 353.31641 19.683594 L 295.46484 55.400391 L 255.44531 0.4453125 z M 347.30078 140.19922 C 366.50078 139.99922 389.5 160.90078 381.5 171.30078 C 307.8 268.20078 254.09922 403.3 232.69922 405 C 220.09922 406 142.6 306.09922 99 261.19922 C 89.3 251.29922 116.39961 213.19961 130.59961 224.09961 C 158.89961 245.79961 216.1 307.09922 224.5 318.19922 C 261.5 244.89922 278.5 218.50039 330.5 148.40039 C 334.8 142.60039 340.80078 140.19922 347.30078 140.19922 z " />
  <path
     style="fill:#ffffff;fill-opacity:1;stroke-width:2.52227"
     d="m 347.30078,140.19921 c 19.2,-0.2 42.19922,20.70156 34.19922,31.10156 -73.7,96.9 -127.40078,231.99922 -148.80078,233.69922 -12.6,1 -90.09922,-98.90078 -133.699222,-143.80078 -9.7,-9.9 17.399612,-47.99961 31.599612,-37.09961 28.3,21.7 85.50039,82.99961 93.90039,94.09961 37,-73.3 54,-99.69883 106,-169.79883 4.3,-5.8 10.30078,-8.20117 16.80078,-8.20117 z"
     id="path1167" />
</svg>
