<?xml version="1.0" encoding="UTF-8" standalone="no"?>
<svg
   viewBox="0 0 512 512"
   style="height: 512px; width: 512px;"
   height="512px"
   width="512px"
   version="1.1"
   id="svg6"
   sodipodi:docname="hit.svg"
   inkscape:version="1.1.1 (3bf5ae0d25, 2021-09-20)"
   xmlns:inkscape="http://www.inkscape.org/namespaces/inkscape"
   xmlns:sodipodi="http://sodipodi.sourceforge.net/DTD/sodipodi-0.dtd"
   xmlns="http://www.w3.org/2000/svg"
   xmlns:svg="http://www.w3.org/2000/svg">
  <defs
     id="defs10" />
  <sodipodi:namedview
     id="namedview8"
     pagecolor="#505050"
     bordercolor="#ffffff"
     borderopacity="1"
     inkscape:pageshadow="0"
     inkscape:pageopacity="0"
     inkscape:pagecheckerboard="1"
     showgrid="false"
     inkscape:zoom="2.8300781"
     inkscape:cx="256"
     inkscape:cy="256"
     inkscape:window-width="3840"
     inkscape:window-height="2058"
     inkscape:window-x="-11"
     inkscape:window-y="-11"
     inkscape:window-maximized="1"
     inkscape:current-layer="svg6" />
  <path
     d="M 256,16 C 123.5,16 16,123.5 16,256 16,388.6 123.5,496 256,496 388.6,496 496,388.6 496,256 496,123.4 388.6,16 256,16 Z m 0,60 c 99.4,0 180,80.6 180,180 0,99.4 -80.6,180 -180,180 C 156.6,436 76,355.4 76,256 76,156.6 156.6,76 256,76 Z m 91.3,64.2 c -6.5,0 -12.5,2.4 -16.8,8.2 -52,70.1 -69,96.5 -106,169.8 -8.4,-11.1 -65.6,-72.4 -93.9,-94.1 -14.2,-10.9 -41.3,27.2 -31.6,37.1 43.6,44.9 121.1,144.8 133.7,143.8 21.4,-1.7 75.1,-136.8 148.8,-233.7 8,-10.4 -15,-31.3 -34.2,-31.1 z"
     fill="#ffffff"
     fill-opacity="1"
     id="path2"
     style="fill:#005500;fill-opacity:1" />
</svg>
