<?xml version="1.0" encoding="UTF-8" standalone="no"?>
<svg
   viewBox="0 0 512 512"
   style="height: 512px; width: 512px;"
   version="1.1"
   id="svg6"
   sodipodi:docname="hp_health.svg"
   inkscape:version="1.1.1 (3bf5ae0d25, 2021-09-20)"
   xmlns:inkscape="http://www.inkscape.org/namespaces/inkscape"
   xmlns:sodipodi="http://sodipodi.sourceforge.net/DTD/sodipodi-0.dtd"
   xmlns="http://www.w3.org/2000/svg"
   xmlns:svg="http://www.w3.org/2000/svg">
  <defs
     id="defs10" />
  <sodipodi:namedview
     id="namedview8"
     pagecolor="#505050"
     bordercolor="#ffffff"
     borderopacity="1"
     inkscape:pageshadow="0"
     inkscape:pageopacity="0"
     inkscape:pagecheckerboard="1"
     showgrid="false"
     inkscape:zoom="2.3886719"
     inkscape:cx="256.41864"
     inkscape:cy="256"
     inkscape:window-width="3840"
     inkscape:window-height="2058"
     inkscape:window-x="-11"
     inkscape:window-y="-11"
     inkscape:window-maximized="1"
     inkscape:current-layer="svg6" />
  <path
     style="fill:#000000;stroke-width:0.741837"
     d="m 211.48978,434.04088 c -12.32933,0 -22.25512,-9.92578 -22.25512,-22.25512 v -89.02043 h -89.02044 c -12.32933,0 -22.2551,-9.92579 -22.2551,-22.25511 v -89.02044 c 0,-12.32933 9.92577,-22.25512 22.2551,-22.25512 h 89.02044 v -89.02044 c 0,-12.32933 9.92579,-22.2551 22.25512,-22.2551 h 89.02044 c 12.32932,0 22.25511,9.92577 22.25511,22.2551 v 89.02044 h 89.02043 c 12.32934,0 22.25512,9.92579 22.25512,22.25512 v 89.02044 c 0,12.32932 -9.92578,22.25511 -22.25512,22.25511 h -89.02043 v 89.02043 c 0,12.32934 -9.92579,22.25512 -22.25511,22.25512 z"
     id="path2" />
</svg>
