<?xml version="1.0" encoding="UTF-8" standalone="no"?>
<svg
   viewBox="0 0 512 512"
   style="height: 512px; width: 512px;"
   height="512px"
   width="512px"
   version="1.1"
   id="svg6"
   sodipodi:docname="hp_rest-long.svg"
   inkscape:version="1.1.1 (3bf5ae0d25, 2021-09-20)"
   xmlns:inkscape="http://www.inkscape.org/namespaces/inkscape"
   xmlns:sodipodi="http://sodipodi.sourceforge.net/DTD/sodipodi-0.dtd"
   xmlns="http://www.w3.org/2000/svg"
   xmlns:svg="http://www.w3.org/2000/svg">
  <defs
     id="defs10" />
  <sodipodi:namedview
     id="namedview8"
     pagecolor="#505050"
     bordercolor="#ffffff"
     borderopacity="1"
     inkscape:pageshadow="0"
     inkscape:pageopacity="0"
     inkscape:pagecheckerboard="1"
     showgrid="false"
     inkscape:zoom="2.3886719"
     inkscape:cx="256.41864"
     inkscape:cy="256"
     inkscape:window-width="3840"
     inkscape:window-height="2058"
     inkscape:window-x="-11"
     inkscape:window-y="-11"
     inkscape:window-maximized="1"
     inkscape:current-layer="svg6" />
  <path
     d="m 363.12458,107.95498 -18.51648,0.19853 0.43205,40.09846 c -47.08636,13.66619 -111.64714,20.30434 -171.25065,24.24938 36.10404,99.04669 102.20786,178.756 162.37406,264.50785 21.31246,-20.21896 52.5765,-32.90069 85.85473,-37.04324 -21.39682,-18.6286 -37.68515,-28.76843 -60.5211,-72.45908 32.16723,38.14908 54.08765,49.85767 79.85024,63.78514 3.35662,-13.4697 9.19446,-25.34494 19.25816,-33.61151 8.91568,-7.3243 20.60061,-10.9597 34.49208,-10.6408 C 446.87871,285.56192 390.51045,226.62707 363.59983,152.16923 l -0.47525,-44.21322 z m -203.5835,12.00999 -18.51442,0.251 c 0,0 0.25717,18.86623 0.57607,38.03078 0.16047,9.58331 0.33432,19.23965 0.50303,26.67299 0.0617,2.71163 0.12035,4.71141 0.17899,6.72971 -35.36441,86.13555 -71.138238,165.61238 -127.475643,240.14016 34.600092,-1.42679 68.229097,-1.23751 101.379753,-0.0422 22.9018,-64.41368 24.01587,-138.72441 36.64925,-207.80218 11.74459,70.52926 10.86917,143.44611 34.44373,211.7359 44.19471,3.17043 88.14871,7.40453 133.06145,11.2395 C 263.07595,365.49857 198.7384,287.43517 160.77448,190.40061 c -0.0514,-1.83313 -0.10287,-3.49344 -0.15636,-5.90161 -0.16665,-7.36133 -0.34256,-16.9971 -0.502,-26.56086 -0.3189,-19.12751 -0.57504,-37.97317 -0.57504,-37.97317 z"
     fill="#000000"
     fill-opacity="1"
     id="path821"
     style="stroke-width:1.02869" />
</svg>
