<?xml version="1.0" encoding="UTF-8" standalone="no"?>
<svg
   viewBox="0 0 512 512"
   style="height: 512px; width: 512px;"
   height="512px"
   width="512px"
   version="1.1"
   id="svg6"
   sodipodi:docname="hp_sw.svg"
   inkscape:version="1.1.1 (3bf5ae0d25, 2021-09-20)"
   xmlns:inkscape="http://www.inkscape.org/namespaces/inkscape"
   xmlns:sodipodi="http://sodipodi.sourceforge.net/DTD/sodipodi-0.dtd"
   xmlns="http://www.w3.org/2000/svg"
   xmlns:svg="http://www.w3.org/2000/svg">
  <defs
     id="defs10" />
  <sodipodi:namedview
     id="namedview8"
     pagecolor="#505050"
     bordercolor="#ffffff"
     borderopacity="1"
     inkscape:pageshadow="0"
     inkscape:pageopacity="0"
     inkscape:pagecheckerboard="1"
     showgrid="false"
     showguides="true"
     inkscape:guide-bbox="true"
     inkscape:zoom="2.3886719"
     inkscape:cx="150.0834"
     inkscape:cy="212.8798"
     inkscape:window-width="3840"
     inkscape:window-height="2058"
     inkscape:window-x="-11"
     inkscape:window-y="-11"
     inkscape:window-maximized="1"
     inkscape:current-layer="svg6">
    <sodipodi:guide
       position="481.43908,150.29272"
       orientation="0,-1"
       id="guide1007" />
    <sodipodi:guide
       position="154.47915,61.121832"
       orientation="0,-1"
       id="guide1123" />
    <sodipodi:guide
       position="256,480"
       orientation="1,0"
       id="guide1281" />
  </sodipodi:namedview>
  <path
     id="path2"
     d="M 256 32 C 192 80 128 96 32 128 C 33.674571 361.70728 155.15944 450.9305 256 496 C 360.60834 450.87817 481.43908 361.70728 480 128 C 384 96 320 80 256 32 z M 232.00977 168.01367 L 280.00391 168.01367 C 286.65101 168.01367 292.00195 173.36463 292.00195 180.01172 L 292.00195 228.00586 L 339.99414 228.00586 C 346.64123 228.00586 351.99414 233.35682 351.99414 240.00391 L 351.99414 287.99609 C 351.99414 294.64319 346.64123 299.99414 339.99414 299.99414 L 292.00195 299.99414 L 292.00195 347.98828 C 292.00195 354.63537 286.65101 359.98633 280.00391 359.98633 L 232.00977 359.98633 C 225.36268 359.98633 220.01172 354.63537 220.01172 347.98828 L 220.01172 299.99414 L 172.01758 299.99414 C 165.37049 299.99414 160.01953 294.64319 160.01953 287.99609 L 160.01953 240.00391 C 160.01953 233.35682 165.37049 228.00586 172.01758 228.00586 L 220.01172 228.00586 L 220.01172 180.01172 C 220.01172 173.36463 225.36268 168.01367 232.00977 168.01367 z " />
</svg>
