<?xml version="1.0" encoding="UTF-8" standalone="no"?>
<svg
   viewBox="0 0 512 512"
   style="height: 512px; width: 512px;"
   version="1.1"
   id="svg6"
   sodipodi:docname="miss-crit.svg"
   inkscape:version="1.1.1 (3bf5ae0d25, 2021-09-20)"
   xmlns:inkscape="http://www.inkscape.org/namespaces/inkscape"
   xmlns:sodipodi="http://sodipodi.sourceforge.net/DTD/sodipodi-0.dtd"
   xmlns="http://www.w3.org/2000/svg"
   xmlns:svg="http://www.w3.org/2000/svg">
  <defs
     id="defs10" />
  <sodipodi:namedview
     id="namedview8"
     pagecolor="#505050"
     bordercolor="#ffffff"
     borderopacity="1"
     inkscape:pageshadow="0"
     inkscape:pageopacity="0"
     inkscape:pagecheckerboard="1"
     showgrid="false"
     inkscape:zoom="2.8300781"
     inkscape:cx="256"
     inkscape:cy="256"
     inkscape:window-width="3840"
     inkscape:window-height="2058"
     inkscape:window-x="-11"
     inkscape:window-y="-11"
     inkscape:window-maximized="1"
     inkscape:current-layer="svg6" />
  <path
     id="path2"
     style="stroke-width:2.52227;fill:#ff0000"
     d="M 255.44531 0.4453125 L 255.44922 0.45507812 L 215.66602 55.576172 L 157.6543 20.113281 L 142.01172 86.257812 L 74.84375 75.681641 L 85.708984 142.7832 L 19.601562 158.7168 L 55.328125 216.55273 L 0.359375 256.55469 L 55.503906 296.31641 L 20.027344 354.30664 L 86.197266 369.94531 L 75.617188 437.09766 L 142.74219 426.23242 L 158.67383 492.31641 L 216.52734 456.59961 L 256.54297 511.55469 L 296.32422 456.42969 L 354.33594 491.89258 L 365.13867 446.21289 L 369.98047 425.74219 L 437.15625 436.32227 L 426.28516 369.21484 L 492.39453 353.28906 L 456.66406 295.45898 L 511.64062 255.45508 L 456.49609 215.6875 L 491.9707 157.69531 L 425.80078 142.05664 L 436.36914 74.904297 L 369.25195 85.767578 L 353.31641 19.683594 L 295.46484 55.400391 L 255.44531 0.4453125 z M 175.375 135.99609 L 175.37305 135.99805 C 178.28305 136.01305 180.78375 136.9833 182.84375 139.0293 L 256 212.1543 L 329.15625 139.0293 C 343.78725 124.4043 387.6925 168.2793 373.0625 182.9043 L 299.90625 256.02734 L 373.0625 329.15234 C 387.6935 343.77834 343.78625 387.68659 329.15625 373.05859 L 256 299.90234 L 182.84375 373.06055 C 168.21275 387.68855 124.3075 343.7793 138.9375 329.1543 L 212.09375 256.0293 L 138.9375 182.9043 C 127.0485 171.0213 154.0155 139.71334 172.3125 136.27734 L 172.3125 136.31055 C 173.3695 136.10955 174.405 135.99109 175.375 135.99609 z " />
  <path
     style="fill:#ffffff;stroke-width:2.52227"
     d="m 175.375,135.99598 -0.002,0.002 c 2.91,0.015 5.4107,0.98525 7.4707,3.03125 L 256,212.15419 l 73.15625,-73.125 c 14.631,-14.625 58.53625,29.25 43.90625,43.875 l -73.15625,73.12304 73.15625,73.125 c 14.631,14.626 -29.27625,58.53425 -43.90625,43.90625 L 256,299.90223 182.84375,373.06044 c -14.631,14.628 -58.53625,-29.28125 -43.90625,-43.90625 l 73.15625,-73.125 -73.15625,-73.125 c -11.889,-11.883 15.078,-43.19096 33.375,-46.62696 v 0.0332 c 1.057,-0.201 2.0925,-0.31946 3.0625,-0.31446 z"
     id="path863" />
</svg>
