<?xml version="1.0" encoding="UTF-8" standalone="no"?>
<svg
   viewBox="0 0 482.00001 482"
   version="1.1"
   id="svg8"
   width="482"
   height="482"
   xmlns="http://www.w3.org/2000/svg"
   xmlns:svg="http://www.w3.org/2000/svg"
   xmlns:rdf="http://www.w3.org/1999/02/22-rdf-syntax-ns#"
   xmlns:cc="http://creativecommons.org/ns#"
   xmlns:dc="http://purl.org/dc/elements/1.1/">
  <metadata
     id="metadata14">
    <rdf:RDF>
      <cc:Work
         rdf:about="">
        <dc:format>image/svg+xml</dc:format>
        <dc:type
           rdf:resource="http://purl.org/dc/dcmitype/StillImage" />
      </cc:Work>
    </rdf:RDF>
  </metadata>
  <defs
     id="defs12" />
  <path
     id="rect4558-6"
     style="fill:#000000;fill-opacity:1;fill-rule:nonzero;stroke:none;stroke-width:3.77953;stroke-linecap:round;stroke-linejoin:round;stroke-miterlimit:4;stroke-dasharray:none;stroke-opacity:1;paint-order:markers stroke fill"
     d="M 217.04297 0.11328125 L 193.82227 40.509766 L 150.70703 22.835938 L 144.71289 69.046875 L 98.115234 69.21875 L 110.26367 114.20703 L 67.279297 132.19531 L 95.716797 169.10938 L 62.888672 202.17969 L 103.28711 225.40039 L 85.613281 268.51562 L 131.82422 274.50977 L 131.99609 321.10547 L 176.98242 308.95898 L 194.97266 351.94531 L 231.88672 323.50781 L 264.95703 356.33398 L 288.17773 315.9375 L 331.29297 333.60938 L 337.28711 287.40039 L 383.88477 287.22852 L 371.73633 242.24023 L 414.7207 224.25195 L 386.2832 187.33789 L 419.11133 154.26562 L 378.71289 131.04688 L 396.38672 87.929688 L 350.17578 81.935547 L 350.00391 35.337891 L 305.01758 47.484375 L 287.02734 4.5019531 L 250.11328 32.9375 L 217.04297 0.11328125 z M 240.99609 67.59375 L 241.00195 67.59375 A 110.66925 110.63136 0 0 1 351.66602 178.22461 A 110.66925 110.63136 0 0 1 240.99805 288.85156 A 110.66925 110.63136 0 0 1 130.33398 178.22461 A 110.66925 110.63136 0 0 1 240.99609 67.59375 z M 356.1543 302.32812 L 350.47266 302.35156 L 343.6582 354.88867 L 294.63867 334.79688 L 289.62109 343.52539 L 289.89453 343.79688 L 259.50977 423.00781 L 281.17773 477.49609 L 325.25195 407.08398 L 405.11133 429.95898 L 356.1543 302.32812 z M 168.21484 326.86523 L 134.67578 335.92188 L 96.921875 434.3457 L 176.7793 411.47656 L 220.85547 481.88672 L 262.02539 374.5625 L 230.63867 343.40234 L 188.66992 375.73438 L 168.21484 326.86523 z " />
</svg>
