<?xml version="1.0" encoding="UTF-8"?>
<svg style="height:512px;width:512px" version="1.1" viewBox="0 0 512 512" xmlns="http://www.w3.org/2000/svg">
 <path d="m251.44 0c-138.27 2.0095-246.63 94.016-246.63 201.65 0 50.656 23.707 97.183 63.538 133.12l5.7986 5.1817 0.24675 7.7726 4.6882 121.4c8.9619 5.0929 29.164 15.559 58.726 24.922v-80.382h36.897v90.067c20.05 4.1987 42.791 7.3166 67.914 8.2661v-83.216h36.889v82.969c26.325-1.3127 49.627-4.9952 69.707-9.7466v-88.336h36.889v77.479c23.352-8.3756 39.133-17.094 46.697-21.648l3.5162-120.29 0.24675-7.9577 5.922-5.3089c40.802-36.157 64.706-82.854 64.706-134.1 0-108.84-110.64-201.84-251.19-201.84h-4.561zm-152.68 175.69h0.0034c46.126-0.58022 115.23 36.577 115.23 36.577 0 42.978-34.87 77.849-77.849 77.849-43.013 0-77.788-34.872-77.788-77.849 0.82509-27.003 17.88-36.295 40.405-36.577zm314.6 0c2.8159 0.035 5.5458 0.20998 8.1697 0.54362 2.6239 0.33367 5.1436 0.82583 7.5336 1.492 2.3899 0.66627 4.6524 1.5079 6.7663 2.5408 1.0569 0.51642 2.0735 1.082 3.0535 1.6964 0.98005 0.61443 1.9204 1.2766 2.8183 1.9932 0.89791 0.71671 1.7534 1.4862 2.5639 2.3094 0.8105 0.82324 1.5761 1.6993 2.294 2.6333 0.71783 0.93398 1.3888 1.9274 2.0087 2.9764 0.61993 1.049 1.1912 2.1552 1.708 3.3234 0.51677 1.1682 0.97961 2.3979 1.388 3.6897 0.40835 1.2917 0.76171 2.6441 1.0564 4.0636 0.29468 1.4195 0.52979 2.9054 0.70555 4.4569 0.17576 1.5515 0.29157 3.1701 0.34312 4.8579 0 2.6861-0.13549 5.3414-0.40094 7.9577-0.26547 2.6162-0.66187 5.193-1.1798 7.7263-0.51793 2.5333-1.1588 5.023-1.9162 7.4603-0.75735 2.4373-1.6302 4.8236-2.614 7.1518-0.9838 2.3282-2.0761 4.5988-3.2733 6.8049-1.1972 2.2061-2.5002 4.3485-3.8978 6.4194-1.3976 2.0709-2.8911 4.0687-4.4762 5.9914-1.585 1.9226-3.2604 3.7674-5.0198 5.5287-1.7594 1.7613-3.6041 3.4407-5.5249 5.0275-1.9208 1.5868-3.9183 3.0807-5.9875 4.48-2.0692 1.3994-4.2109 2.7029-6.4155 3.9017-2.2046 1.1988-4.4703 2.2958-6.7972 3.281-2.3269 0.98517-4.7118 1.8594-7.148 2.6178-2.4363 0.7585-4.9239 1.4013-7.4565 1.92-2.5326 0.51872-5.1104 0.91384-7.7263 1.1798-2.6159 0.26591-5.2714 0.40096-7.9576 0.40096-2.6861 0-5.3414-0.13505-7.9577-0.40096-2.6162-0.26592-5.193-0.66104-7.7263-1.1798-2.5333-0.51873-5.023-1.1616-7.4603-1.92-2.4373-0.75846-4.8236-1.6326-7.1519-2.6178-2.3282-0.98519-4.5988-2.0822-6.8048-3.281-2.2061-1.1988-4.3484-2.5024-6.4193-3.9017-2.0709-1.3994-4.0688-2.8932-5.9914-4.48-1.9226-1.5868-3.7675-3.2662-5.5287-5.0275-1.7613-1.7613-3.4407-3.6061-5.0275-5.5287-1.5868-1.9226-3.0807-3.9205-4.48-5.9914-1.3994-2.0709-2.7029-4.2132-3.9017-6.4194-1.1988-2.2061-2.2958-4.4766-3.281-6.8049-0.98519-2.3282-1.8594-4.7146-2.6178-7.1518-0.7585-2.4373-1.4013-4.927-1.92-7.4603-0.51872-2.5333-0.91385-5.1101-1.1798-7.7263-0.26589-2.6162-0.40094-5.2715-0.40094-7.9577 0 0 4.3207-2.324 11.52-5.7986 3.5997-1.7373 7.917-3.7626 12.777-5.9297 4.86-2.167 10.263-4.4736 16.023-6.7779 5.7606-2.3042 11.881-4.6059 18.182-6.7548 3.1507-1.0744 6.3469-2.1113 9.5653-3.0921 3.2185-0.98072 6.459-1.9023 9.7003-2.7528 3.2413-0.85045 6.4812-1.6297 9.7003-2.3133 3.2191-0.6836 6.4172-1.2741 9.5692-1.7542 3.152-0.48019 6.2594-0.84707 9.2994-1.0872 3.0399-0.24016 6.0117-0.35253 8.8945-0.31615zm-157.43 95.241 4e-3 4e-3 40.158 89.628h-80.321z"/>
</svg>
