<?xml version="1.0" encoding="UTF-8" standalone="no"?>
<svg
   viewBox="0 0 485 485"
   version="1.1"
   id="svg1"
   width="485"
   height="485"
   xmlns="http://www.w3.org/2000/svg"
   xmlns:svg="http://www.w3.org/2000/svg">
  <defs
     id="defs1" />
  <path
     d="m 131.3,20.35 c -14.6,0.1 -28.1,10 -31.93,24.82 -2.33,9.13 -0.55,18.4 4.13,25.84 -7.67,4.26 -13.69,11.53 -16.03,20.66 -2.32,9.13 -0.56,18.33 4.1,25.83 a 32.687,32.687 0 0 0 -15.96,20.6 c -2.34,9.1 -0.54,18.4 4.18,25.8 -7.72,4.3 -13.75,11.5 -16.09,20.7 -2.33,9.1 -0.54,18.4 4.19,25.8 -7.72,4.3 -13.75,11.5 -16.09,20.7 -2.34,9.1 -0.54,18.4 4.18,25.8 -7.72,4.3 -13.75,11.5 -16.08,20.7 -2.34,9.1 -0.54,18.4 4.18,25.8 -7.72,4.3 -13.75,11.5 -16.09,20.7 -2.35,9.2 -0.51,18.5 4.3,26 a 32.915,32.915 0 0 0 -16.28,20.8 c -4.48,17.5 6.25,35.6 23.79,40.1 l 0.1,-0.2 31.71,8.2 -1.47,5.7 261.56,67 42.3,-165.2 -22.4,21.2 -87.8,26.5 15.5,-42.5 -151.7,-38.8 4.4,-17.4 153.5,39.3 9.7,-26.7 15.3,-14.4 -167,-42.8 4.4,-17.4 178,45.6 39.6,-37.4 -206.1,-52.8 4.4,-17.4 216.9,55.5 -0.1,0.4 31.5,-29.8 18.3,-71.4 L 168.8,39.16 164,57.82 c 2.2,-16.32 -8.1,-32.27 -24.5,-36.44 -2.7,-0.7 -5.5,-1.04 -8.2,-1.03 z m 0.3,17.99 c 1.2,0 2.4,0.19 3.5,0.48 8.1,2.09 12.9,10.13 10.8,18.27 l 17.2,4.4 -11,42.81 C 154.3,87.95 143.9,72.04 127.6,67.87 L 127,67.72 c -7.8,-2.34 -12.2,-10.15 -10.2,-18.07 1.7,-6.61 7.3,-11 13.7,-11.3 h 1.1 z m -11.9,46.51 c 0.9,0 1.9,0.14 2.9,0.36 l 0.6,0.15 c 8.1,2.08 12.9,10.12 10.8,18.24 l 17.2,4.4 -11,43 c 2.4,-16.4 -8,-32.6 -24.4,-36.7 -0.7,-0.2 -1.3,-0.4 -1.9,-0.5 -7,-2.7 -10.9,-10.1 -9,-17.62 1.7,-6.97 7.9,-11.45 14.8,-11.29 z m 59.9,4.59 217,55.66 -4.4,17.4 -217,-55.6 z m -72.9,41.86 h 1.3 c 0.5,0 0.9,0 1.4,0.1 0.6,0.2 1.2,0.3 1.8,0.5 l 0.1,-0.2 c 8.1,2.1 12.9,10.1 10.8,18.3 l 17.2,4.4 -11,43 c 2.3,-16.3 -8.1,-32.4 -24.4,-36.6 -8.18,-2.1 -12.94,-10.1 -10.85,-18.3 1.69,-6.6 7.25,-10.9 13.65,-11.2 z m 358.7,20.7 -10.2,9.6 31.6,33.5 10.2,-9.6 z M 442.1,174 315.7,293.5 347.2,327 473.7,207.5 Z m -347.23,3.7 c 1.48,0 3,0.1 4.53,0.5 8.1,2.1 12.9,10.1 10.8,18.3 l 17.2,4.4 -11,43 c 2.3,-16.4 -8.1,-32.4 -24.44,-36.6 -8.14,-2.1 -12.9,-10.1 -10.82,-18.3 1.7,-6.6 7.32,-11 13.73,-11.3 z m -11.91,46.5 c 1.48,0 3,0.1 4.53,0.5 8.14,2.1 12.91,10.1 10.81,18.3 l 17.2,4.4 -11,42.9 C 106.8,274 96.4,258 80.05,253.8 71.91,251.7 67.16,243.7 69.24,235.5 c 1.69,-6.6 7.31,-11 13.72,-11.3 z m -11.9,46.5 c 1.48,0 3,0.1 4.53,0.5 8.13,2.1 12.89,10.1 10.81,18.3 l 17.2,4.3 -10.94,42.8 c 2.16,-16.3 -8.25,-32.1 -24.51,-36.3 -8.14,-2.1 -12.9,-10.1 -10.82,-18.3 1.7,-6.6 7.32,-11 13.73,-11.3 z m 235.34,39.2 -13.4,36.7 37.4,-11.3 z m -247.25,7.3 c 1.48,0 3,0.1 4.53,0.5 8.14,2.1 12.9,10.1 10.81,18.3 l 17.21,4.3 -11,43 c 2.1,-16.2 -8.3,-32 -24.53,-36.2 l 0.1,-0.3 c -8.16,-2.1 -12.92,-10.1 -10.84,-18.3 1.69,-6.6 7.31,-11 13.72,-11.3 z m 56.95,20.3 217.1,55.5 -4.4,17.4 -217.1,-55.5 z M 47.18,364 c 1.48,0 3,0.1 4.52,0.5 8.14,2.1 12.9,10.1 10.82,18.3 l 17.2,4.3 -3.69,14.4 -31.92,-8.2 v 0.2 C 36.1,391.3 31.44,383.4 33.5,375.3 c 1.7,-6.6 7.32,-11 13.73,-11.3 z"
     fill="#ffffff"
     fill-opacity="1"
     id="path1"
     style="fill:#000000"
     transform="translate(-13.49586,-13.524893)" />
</svg>
