<?xml version="1.0" encoding="UTF-8" standalone="no"?>
<svg
   viewBox="0 0 473 473"
   version="1.1"
   id="svg1"
   width="473"
   height="473"
   xmlns="http://www.w3.org/2000/svg"
   xmlns:svg="http://www.w3.org/2000/svg">
  <defs
     id="defs1" />
  <path
     d="m 102.5,26.03 90.03,345.75 289.22,23.25 -90.063,-345.75 z m -18.906,1.564 c -30.466,11.873 -55.68,53.098 -49.75,75.312 l 3.25,11.78 c 0.667,-1.76 1.36,-3.522 2.093,-5.28 C 49.097,85.7 65.748,62.64 89.564,50.5 Z m 10.844,41.593 c -16.657,10.012 -29.92,28.077 -38,47.407 -5.247,12.55 -8.038,25.63 -8.75,36.53 L 112.5,388.407 c 0.294,-0.55 0.572,-1.106 0.875,-1.656 10.603,-19.252 27.823,-37.695 51.125,-48.47 L 94.437,69.19 Z m 74.874,287.594 c -17.677,9.078 -31.145,23.717 -39.562,39 -4.464,8.107 -7.27,16.364 -8.688,23.75 l 11.688,42.408 1.625,0.125 c -3.84,-27.548 11.352,-60.504 41.25,-81.094 l -6.313,-24.19 z m 26.344,34 c -32.567,17.27 -46.51,52.44 -41.844,72.94 l 289.844,24.5 c -5.34,-7.79 -8.673,-17.947 -8.594,-28.5 l -22.406,-9 46.344,-7.285 -13.5,-12.875 c 5.604,-6.917 13.707,-13.05 24.813,-17.687 L 195.656,390.78 Z"
     fill="#ffffff"
     fill-opacity="1"
     id="path1"
     style="fill:#000000"
     transform="translate(-20.861693,-20.6255)" />
</svg>
