<?xml version="1.0" encoding="UTF-8" standalone="no"?>
<svg
   viewBox="0 0 512 512"
   style="height: 512px; width: 512px;"
   version="1.1"
   id="svg1"
   xml:space="preserve"
   xmlns="http://www.w3.org/2000/svg"
   xmlns:svg="http://www.w3.org/2000/svg"><defs
     id="defs1" /><path
     d="m 254.5175,8.826542 c -25.29924,0 -48.53247,12.995393 -66.13243,35.509696 -17.60141,22.512862 -28.94429,54.39336 -28.94429,89.862722 0,37.63189 13.28067,71.08998 32.91494,93.86074 l 14.60902,16.94299 -21.81267,4.97341 c -54.78668,12.49113 -80.62619,38.02953 -95.779785,78.18559 -7.50191,19.87683 -11.81293,43.75024 -14.25703,70.97558 60.205305,34.49708 180.296215,104.03619 180.296215,104.03619 0,0 120.76429,-70.5986 181.47327,-105.32334 -1.77499,-27.35922 -5.26071,-51.87089 -12.1103,-71.96191 -13.965,-40.96286 -39.05822,-66.8211 -97.9553,-78.34695 l -22.00285,-4.30779 14.14366,-17.39826 c 18.40966,-22.64542 30.64002,-55.32983 30.64002,-91.63482 0,-35.470792 -11.34575,-67.34985 -28.94716,-89.862711 C 303.05284,21.824817 279.81818,8.827983 254.52038,8.827983 h -0.003 z"
     fill="#ffffff"
     fill-opacity="1"
     id="path1"
     style="height:512px;width:512px;fill:#000000;stroke-width:1.44073"
     transform="translate(0,8.3149615)" /></svg>
