<?xml version="1.0" encoding="UTF-8" standalone="no"?>
<svg
   viewBox="0 0 512 512"
   style="height: 512px; width: 512px;"
   version="1.1"
   id="svg1"
   xml:space="preserve"
   xmlns="http://www.w3.org/2000/svg"
   xmlns:svg="http://www.w3.org/2000/svg"><defs
     id="defs1" /><path
     id="rect1"
     style="stroke-width:21.8;stroke-linecap:round"
     d="m 305.29475,49.142535 c -19.76431,12.090511 -39.09955,23.96117 -58.9082,36.294922 12.93041,15.076803 25.79865,29.660913 38.31445,44.368903 16.73213,-10.1888 32.86631,-20.28327 49.1211,-30.364996 -9.43466,-16.851446 -18.75307,-33.459622 -28.52735,-50.298829 z m -82.22656,34.398438 c -57.29798,40.596257 -76.21536,47.565517 -112.89839,73.097407 -3.07959,2.00718 -2.95794,4.15062 -2.36131,7.10938 9.72835,52.20966 19.03124,104.53459 29.23236,156.73047 2.43555,12.57852 2.86332,22.78282 -4.48919,33.93554 -4.55281,13.27204 -26.7104,55.6155 -35.430314,78.7954 l 135.398574,78.78195 c 15.31394,-26.89806 30.4635,-57.33385 49.45647,-90.65742 19.7383,-13.51788 43.76656,-24.68653 58.12891,-47.2168 4.16125,-5.9925 11.93338,-15.67971 14.24805,-22.67578 -4.56664,2.61911 -9.02343,5.22463 -13.52735,7.84375 -26.9516,-44.99939 -53.94645,-93.55041 -84.0664,-142.97266 -2.48296,-4.38306 -5.4549,-5.93164 -8.59571,-5.93164 1.36309,51.72468 2.251,103.09827 3.4336,155.3125 -5.74771,-1.6706 -10.43786,-2.85151 -15.59961,-4.27734 -2.33151,-41.55722 -0.89392,-89.03446 -3.26367,-137.39649 0,-2.37435 -1.06996,-5.21006 -2.84766,-7 -8.67127,-8.54582 -12.11704,-13.50173 -25.86133,-30.24609 2.18922,-9.37804 4.87122,-18.50641 7.47657,-28.23633 9.375,9.46832 18.51251,21.70946 30.30468,32.86523 10.03286,3.20047 19.99209,6.15639 29.9668,9.12891 1.07396,0.35188 2.85096,6e-4 3.55469,-0.70312 9.05335,-8.39135 18.15043,-16.7368 27.28906,-25.03516 -26.81391,-30.85735 -53.08986,-61.11502 -79.54883,-91.251707 z m 123.20899,26.931557 c -17.20334,10.57129 -34.04243,21.00529 -50.95508,31.33187 10.14149,11.73558 19.74631,22.66241 29.36914,33.9375 -9.97316,9.36124 -19.58195,18.13808 -29.2461,26.91797 0.35035,0.24324 0.5329,0.36384 0.70118,0.71875 25.0347,-15.42868 50.48499,-30.96491 76.24023,-46.99024 -8.71715,-15.4256 -17.32796,-30.48729 -26.10937,-45.91585 z m 32.39062,60.64046 c -31.4999,19.4568 -62.52615,38.43945 -93.96484,57.77539 9.19448,16.13241 18.32457,32.15831 27.53125,48.64258 31.60853,-19.45527 62.75369,-38.43815 94.14648,-57.89648 -9.43772,-16.60821 -18.33789,-32.38756 -27.71289,-48.52149 z m 30.02734,65.72852 c -29.67631,18.26043 -58.90833,36.29322 -88.33984,54.32422 8.71867,15.67342 17.49552,30.85876 26.27539,46.39453 29.43151,-18.13961 58.73764,-36.0679 88.27931,-54.44922 -8.71562,-15.55259 -17.49769,-30.85922 -26.21486,-46.26953 z" /></svg>
