<?xml version="1.0" encoding="UTF-8" standalone="no"?>
<svg
   viewBox="0 0 519.99999 520"
   version="1.1"
   id="svg1"
   width="520"
   height="520"
   xmlns="http://www.w3.org/2000/svg"
   xmlns:svg="http://www.w3.org/2000/svg">
  <defs
     id="defs1" />
  <path
     id="path3"
     style="fill:#000000;fill-rule:evenodd;stroke:none;stroke-width:0.98012px;stroke-linecap:butt;stroke-linejoin:miter;stroke-opacity:1"
     d="m 260.00957,30.626917 -5.29303,3.95111 C 192.87111,81.065005 132.00563,111.53551 39.070883,127.02138 l -7.350904,1.1773 v 7.44853 c 0,198.47889 124.238871,323.47918 228.289591,353.72587 111.39798,-30.59041 228.27045,-155.73106 228.27045,-353.72587 v -7.44853 l -7.25328,-1.1773 C 388.30761,111.53551 327.24601,81.065005 265.3026,34.578027 Z m 0.0229,30.404793 c 23.0965,16.721169 47.31075,31.972998 72.80458,44.77159 41.151,20.68682 85.54443,34.4452 130.75038,42.89176 -0.053,1.6791 -0.10246,3.3581 -0.17421,5.03652 -1.40544,36.27402 -7.11006,72.41592 -17.92165,107.13368 -1.09189,3.51177 -2.36085,6.97079 -3.55868,10.45207 H 291.36385 v 63.30774 l 62.72771,-15.68193 -94.09157,109.7735 -94.09156,-109.7735 62.72771,15.68193 V 271.31733 H 79.081622 c -7.157888,-19.92746 -12.674557,-40.51651 -16.395961,-61.37239 -3.603505,-20.23321 -5.617777,-40.71205 -6.25784,-61.22116 33.326446,-6.18259 66.156849,-15.2873 97.631109,-27.90664 36.76246,-14.67247 71.16278,-34.78825 103.27253,-57.834761 z m -0.0325,52.40581 -94.09156,109.7735 62.72771,-15.68193 v 63.58724 h 62.72771 v -63.58724 l 62.72771,15.68193 z" />
</svg>
